<svg id="レイヤー_1" data-name="レイヤー 1" xmlns="http://www.w3.org/2000/svg" viewBox="0 0 126.64 99.09"><defs><style>.cls-1{fill:#040000;}</style></defs><path class="cls-1" d="M46.11,25.25a4.87,4.87,0,0,0,2.48-5C47,10,34.7,3.12,24.3,3.12S1.6,10,0,20.22a4.86,4.86,0,0,0,8,4.38l3.86-3.45c6-5.36,18.77-5.36,24.78,0l3.86,3.45A4.76,4.76,0,0,0,46.11,25.25ZM102.25,3.12C91.81,3.12,79.54,10,78,20.22a4.86,4.86,0,0,0,8,4.38l3.86-3.45c6-5.36,18.76-5.36,24.77,0l3.86,3.45a4.86,4.86,0,0,0,8.05-4.38C125,10,112.68,3.12,102.25,3.12Zm-39,37.37c-12.55,0-22.74,11.65-22.74,26s10.19,26,22.74,26S86,80.82,86,66.48,75.8,40.49,63.25,40.49Z" transform="translate(0.05 -3.12)"/><path class="cls-1" d="M14.06,35.68c-5.36,0-9.75,3.18-9.75,7.06v52.4c0,3.88,4.39,7.06,9.75,7.06s9.75-3.18,9.75-7.06V42.74C23.81,38.86,19.42,35.68,14.06,35.68Z" transform="translate(0.05 -3.12)"/><path class="cls-1" d="M112,35.68c-5.36,0-9.74,3.18-9.74,7.06v52.4c0,3.88,4.38,7.06,9.74,7.06s9.75-3.18,9.75-7.06V42.74C121.74,38.86,117.36,35.68,112,35.68Z" transform="translate(0.05 -3.12)"/></svg>