<svg id="レイヤー_1" data-name="レイヤー 1" xmlns="http://www.w3.org/2000/svg" viewBox="0 0 105.37 82.44"><defs><style>.cls-1{fill:#040000;}</style></defs><path class="cls-1" d="M49.07,29.86a4.06,4.06,0,0,0,2.06-4.19c-1.35-8.52-11.56-14.23-20.21-14.23S12,17.15,10.71,25.67a4,4,0,0,0,6.69,3.65l3.22-2.87c5-4.47,15.61-4.47,20.61,0l3.21,2.87A4,4,0,0,0,49.07,29.86Zm46.7-18.42c-8.68,0-18.89,5.71-20.21,14.23a4.07,4.07,0,0,0,2.07,4.19,4,4,0,0,0,4.62-.54l3.22-2.87c5-4.47,15.61-4.47,20.61,0l3.21,2.87A4,4,0,0,0,116,25.67c-1.32-8.52-11.52-14.23-20.21-14.23ZM63.33,42.53c-10.44,0-18.92,9.7-18.92,21.63s8.48,21.63,18.92,21.63,18.92-9.7,18.92-21.63S73.77,42.53,63.33,42.53Z" transform="translate(-10.66 -11.44)"/><path class="cls-1" d="M22.4,38.53c-4.46,0-8.11,2.64-8.11,5.88V88c0,3.23,3.65,5.88,8.11,5.88s8.11-2.65,8.11-5.88V44.41C30.51,41.17,26.86,38.53,22.4,38.53Z" transform="translate(-10.66 -11.44)"/><path class="cls-1" d="M103.88,38.53c-4.46,0-8.11,2.64-8.11,5.88V88c0,3.23,3.65,5.88,8.11,5.88S112,91.23,112,88V44.41C112,41.17,108.34,38.53,103.88,38.53Z" transform="translate(-10.66 -11.44)"/></svg>