<svg id="レイヤー_1" data-name="レイヤー 1" xmlns="http://www.w3.org/2000/svg" viewBox="0 0 75.7 72.97"><defs><style>.cls-1{fill:#040000;}</style></defs><path class="cls-1" d="M36.31,37.8A10.82,10.82,0,1,0,25.5,27,10.81,10.81,0,0,0,36.31,37.8ZM90.38,16.17A10.82,10.82,0,1,0,101.2,27,10.81,10.81,0,0,0,90.38,16.17Zm-27,43.26A45.57,45.57,0,0,0,28.27,75.85,8.11,8.11,0,1,0,40.74,86.23a29.4,29.4,0,0,1,45.22,0A8.11,8.11,0,1,0,98.43,75.85,45.58,45.58,0,0,0,63.35,59.43Z" transform="translate(-25.5 -16.17)"/></svg>