<svg id="レイヤー_1" data-name="レイヤー 1" xmlns="http://www.w3.org/2000/svg" viewBox="0 0 92.06 86.66"><defs><style>.cls-1{fill:#040000;}</style></defs><path class="cls-1" d="M90.43,9.33c-8.06,0-17.84,9.92-19,24.17a2.7,2.7,0,0,0,5,1.52l3.21-5.75C82.34,24.63,86.23,22,90.39,22s8.06,2.67,10.67,7.31L104.27,35a2.7,2.7,0,0,0,5-1.52C108.27,19.25,98.49,9.33,90.43,9.33ZM22.39,35l3.21-5.75C28.21,24.63,32.1,22,36.27,22s8,2.67,10.66,7.31L50.15,35a2.7,2.7,0,0,0,5-1.52c-1.12-14.25-10.9-24.17-19-24.17S18.39,19.25,17.28,33.5A2.74,2.74,0,0,0,22.39,35Zm79.68,20.35H24.62a4.55,4.55,0,0,0-4.57,5.08C22.59,80.49,40,96,61.05,96h4.6c21,0,38.45-15.5,41-35.54a4.54,4.54,0,0,0-4.57-5.08Z" transform="translate(-17.27 -9.33)"/></svg>