<svg id="レイヤー_1" data-name="レイヤー 1" xmlns="http://www.w3.org/2000/svg" viewBox="0 0 399.33 222.37"><defs><style>.cls-1{fill:#040000;}</style></defs><path class="cls-1" d="M90.43,9.75c-8.06,0-17.84,9.91-19,24.17a2.7,2.7,0,0,0,5,1.52l3.21-5.76c2.61-4.63,6.5-7.31,10.66-7.31s8.06,2.68,10.67,7.31l3.21,5.76a2.7,2.7,0,0,0,5-1.52C108.27,19.66,98.49,9.75,90.43,9.75Zm-68,25.69,3.21-5.76c2.61-4.63,6.5-7.31,10.67-7.31s8,2.68,10.66,7.31l3.22,5.76a2.7,2.7,0,0,0,5-1.52c-1.12-14.26-10.9-24.17-19-24.17S18.39,19.66,17.28,33.92A2.74,2.74,0,0,0,22.39,35.44Zm79.68,20.34H24.62a4.55,4.55,0,0,0-4.57,5.08c2.54,20,19.94,35.55,41,35.55h4.6c21,0,38.45-15.51,41-35.55a4.54,4.54,0,0,0-4.57-5.08Z" transform="translate(140.99 -9.75)"/><path class="cls-1" d="M-109.92,157.67A10.8,10.8,0,0,0-99.1,146.86a10.8,10.8,0,0,0-10.82-10.81,10.8,10.8,0,0,0-10.81,10.81A10.8,10.8,0,0,0-109.92,157.67Zm54.07-21.62a10.8,10.8,0,0,0-10.81,10.81,10.8,10.8,0,0,0,10.81,10.81A10.8,10.8,0,0,0-45,146.86,10.8,10.8,0,0,0-55.85,136.05Zm-27,43.25A45.55,45.55,0,0,0-118,195.73a8.1,8.1,0,0,0,1,11.42,8.12,8.12,0,0,0,11.42-1.05,29.42,29.42,0,0,1,22.61-10.61A29.29,29.29,0,0,1-60.27,206.1a8.13,8.13,0,0,0,11.42,1.05,8.13,8.13,0,0,0,1.05-11.42A45.56,45.56,0,0,0-82.88,179.3Z" transform="translate(140.99 -9.75)"/><path class="cls-1" d="M245.35,199.91c-8.75,2.8-21.76,4.42-35.68,4.42s-26.9-1.62-35.69-4.42a4.64,4.64,0,0,0-6,5.17c2.67,15.95,24.09,27,41.67,27s39-11.12,41.66-27a4.65,4.65,0,0,0-6-5.17Zm-77-19.44a2.53,2.53,0,0,0,3.71,2.67l10.58-5.5,10.58,5.5a2.54,2.54,0,0,0,3.72-2.67l-2-11.79,8.58-8.31a2.64,2.64,0,0,0-1.45-4.46l-11.79-1.69L185,143.54a2.61,2.61,0,0,0-4.7,0l-5.24,10.68-11.79,1.69a2.63,2.63,0,0,0-1.46,4.46l8.59,8.31Zm87.76-24.56-11.8-1.69-5.23-10.68a2.61,2.61,0,0,0-4.7,0l-5.24,10.68-11.79,1.69a2.63,2.63,0,0,0-1.46,4.46l8.59,8.31-2,11.79a2.53,2.53,0,0,0,3.72,2.67l10.58-5.5,10.57,5.5a2.53,2.53,0,0,0,3.72-2.67l-2-11.79,8.59-8.31A2.65,2.65,0,0,0,256.1,155.91Z" transform="translate(140.99 -9.75)"/><path class="cls-1" d="M182.62,36.46a10.82,10.82,0,1,0-10.81-10.82A10.81,10.81,0,0,0,182.62,36.46Zm54.07,0a10.82,10.82,0,1,0-10.81-10.82A10.81,10.81,0,0,0,236.69,36.46ZM238,61a36.92,36.92,0,0,1-56.77,0A8.11,8.11,0,1,0,168.8,71.36a53.19,53.19,0,0,0,81.71,0A8.11,8.11,0,1,0,238,61Z" transform="translate(140.99 -9.75)"/><path class="cls-1" d="M-102.58,29.86a4.08,4.08,0,0,0,2.06-4.19c-1.35-8.52-11.56-14.23-20.21-14.23s-18.89,5.71-20.21,14.23a4.08,4.08,0,0,0,2.06,4.19,4,4,0,0,0,4.63-.54l3.21-2.87c5-4.47,15.62-4.47,20.62,0l3.21,2.87A4,4,0,0,0-102.58,29.86Zm46.7-18.42c-8.68,0-18.89,5.71-20.21,14.23A4.08,4.08,0,0,0-74,29.86a4,4,0,0,0,4.63-.54l3.21-2.87c5-4.47,15.62-4.47,20.62,0l3.21,2.87a4.1,4.1,0,0,0,4.63.54,4.08,4.08,0,0,0,2.06-4.19C-37,17.15-47.19,11.44-55.88,11.44ZM-88.32,42.53c-10.44,0-18.93,9.7-18.93,21.63s8.49,21.63,18.93,21.63,18.92-9.7,18.92-21.63S-77.88,42.53-88.32,42.53Z" transform="translate(140.99 -9.75)"/><path class="cls-1" d="M-129.25,38.53c-4.46,0-8.11,2.64-8.11,5.88V88c0,3.23,3.65,5.88,8.11,5.88s8.11-2.65,8.11-5.88V44.41C-121.14,41.17-124.79,38.53-129.25,38.53Z" transform="translate(140.99 -9.75)"/><path class="cls-1" d="M-47.77,38.53c-4.46,0-8.11,2.64-8.11,5.88V88c0,3.23,3.65,5.88,8.11,5.88s8.11-2.65,8.11-5.88V44.41C-39.66,41.17-43.31,38.53-47.77,38.53Z" transform="translate(140.99 -9.75)"/></svg>