<svg id="レイヤー_1" data-name="レイヤー 1" xmlns="http://www.w3.org/2000/svg" viewBox="0 0 97.31 90.04"><defs><style>.cls-1{fill:#040000;}</style></defs><path class="cls-1" d="M99,65.48c-8.75,2.8-21.76,4.42-35.68,4.42s-26.9-1.62-35.69-4.42a4.64,4.64,0,0,0-6,5.17c2.67,15.95,24.09,27,41.67,27s39-11.12,41.66-27a4.65,4.65,0,0,0-6-5.17ZM22,46a2.53,2.53,0,0,0,3.71,2.67l10.58-5.5,10.58,5.5A2.54,2.54,0,0,0,50.54,46l-2-11.79,8.58-8.31a2.64,2.64,0,0,0-1.45-4.46l-11.8-1.69L38.61,9.11a2.61,2.61,0,0,0-4.7,0L28.67,19.79,16.88,21.48a2.63,2.63,0,0,0-1.46,4.46L24,34.25Zm87.76-24.56-11.8-1.69L92.68,9.11a2.61,2.61,0,0,0-4.7,0L82.74,19.79,71,21.48a2.63,2.63,0,0,0-1.46,4.46l8.59,8.31L76.05,46a2.53,2.53,0,0,0,3.72,2.67l10.57-5.5,10.58,5.5A2.53,2.53,0,0,0,104.64,46l-2-11.79,8.59-8.31A2.65,2.65,0,0,0,109.71,21.48Z" transform="translate(-14.64 -7.64)"/></svg>