<?xml version="1.0" encoding="utf-8"?>
<!-- Generator: Adobe Illustrator 25.2.1, SVG Export Plug-In . SVG Version: 6.00 Build 0)  -->
<svg version="1.1" id="レイヤー_1" focusable="false"
	 xmlns="http://www.w3.org/2000/svg" xmlns:xlink="http://www.w3.org/1999/xlink" x="0px" y="0px" viewBox="0 0 496 512"
	 style="enable-background:new 0 0 496 512;" xml:space="preserve">
<style type="text/css">
	.st0{fill:#231815;}
</style>
<path class="st0" d="M304.8,14.7C123.8-25.4-33.8,132.2,6.3,313.2c20.4,92.1,92.8,164.5,184.9,184.9
	c181,40.1,338.6-117.5,298.5-298.5C469.3,107.5,396.9,35.1,304.8,14.7z M250.8,456.4C138.3,457.9,46.5,366.1,48,253.6
	c1.4-106,91.2-195.8,197.2-197.2c112.5-1.5,204.3,90.3,202.8,202.8C446.5,365.2,356.8,454.9,250.8,456.4z M388.3,297
	c-25.9,8.3-99.1-14.1-140.3-14.1S127.7,305.3,101.7,297c-9.8-3.1-19.4,5.3-17.7,15.3c7.9,47.1,112,121.6,164,121.6
	s150-74.5,158-121.6C407.6,302.5,398.3,293.9,388.3,297L388.3,297z M117.7,232.1c3.5,1.1,7.4-0.5,9.3-3.7l9.5-17
	c7.7-13.7,19.2,38.9,31.5,38.9s23.8-52.6,31.5-38.9l9.5,17c2.1,3.7,6.2,4.7,9.3,3.7c3.6-1.1,6-4.5,5.7-8.3
	c-3.3-42.1-32.2-97.9-56-97.9s-52.7,55.8-56,97.9C111.7,227.5,114.1,231,117.7,232.1L117.7,232.1z M277.7,232.1
	c3.5,1.1,7.4-0.5,9.3-3.7l9.5-17c7.7-13.7,19.2,79.9,31.5,79.9s23.8-93.6,31.5-79.9l9.5,17c2.1,3.7,6.2,4.7,9.3,3.7
	c3.6-1.1,6-4.5,5.7-8.3c-3.3-42.1-32.2-97.9-56-97.9s-52.7,55.8-56,97.9C271.7,227.5,274.1,231,277.7,232.1L277.7,232.1z"/>
</svg>
